<?xml version="1.0" standalone="no"?><svg xmlns:xlink="http://www.w3.org/1999/xlink" xmlns="http://www.w3.org/2000/svg" viewBox="0 0 1000 538.4665095956792" preserveAspectRatio="xMaxYMax slice"><g transform="scale(1.095334641162895)"><rect x="0" y="0" width="912.9714285714285" height="491.6" fill="#111928"/><rect x="0" y="0" width="70.23" height="70.23" fill="#4a505b"/><polygon points="0,0 70.23,0 0,70.23" fill="#1a2231"/><rect x="70.23" y="0" width="70.23" height="70.23" fill="#3c4352"/><polygon points="70.23,0 140.46,0 70.23,70.23" fill="#293140"/><rect x="140.45714285714286" y="0" width="70.22857142857143" height="70.22857142857143" fill="#111928"/><rect x="140.46" y="0" width="35.11" height="35.11" fill="#192130"/><polygon points="140.46,0 175.57,0 140.46,35.11" fill="#4e5664"/><rect x="175.57" y="0" width="35.11" height="35.11" fill="#878b93"/><polygon points="175.57,0 210.68,0 210.68,35.11" fill="#333b4a"/><rect x="140.46" y="35.11" width="35.11" height="35.11" fill="#bdbfc3"/><polygon points="175.57,35.11 175.57,70.22 140.46,70.22" fill="#4d5463"/><rect x="175.57" y="35.11" width="35.11" height="35.11" fill="#192130"/><polygon points="175.57,35.11 210.68,35.11 175.57,70.22" fill="#5a606a"/><rect x="210.69" y="0" width="70.23" height="70.23" fill="#394150"/><polygon points="210.69,0 280.92,0 210.69,70.23" fill="#555c6a"/><rect x="280.9142857142857" y="0" width="70.22857142857143" height="70.22857142857143" fill="#111928"/><rect x="280.91" y="0" width="35.11" height="35.11" fill="#252d3c"/><polygon points="316.02000000000004,0 316.02000000000004,35.11 280.91,35.11" fill="#272e3c"/><rect x="316.03" y="0" width="35.11" height="35.11" fill="#787d85"/><polygon points="316.03,0 351.14,35.11 316.03,35.11" fill="#464d58"/><rect x="280.91" y="35.11" width="35.11" height="35.11" fill="#3e4554"/><polygon points="280.91,35.11 316.02000000000004,35.11 316.02000000000004,70.22" fill="#5c626c"/><rect x="316.03" y="35.11" width="35.11" height="35.11" fill="#5b6270"/><polygon points="351.14,35.11 351.14,70.22 316.03,70.22" fill="#232b3a"/><rect x="351.1428571428571" y="0" width="70.22857142857143" height="70.22857142857143" fill="#111928"/><rect x="351.14" y="0" width="35.11" height="35.11" fill="#424958"/><polygon points="351.14,0 386.25,35.11 351.14,35.11" fill="#bdbfc3"/><rect x="386.26" y="0" width="35.11" height="35.11" fill="#555c6a"/><polygon points="386.26,0 421.37,0 386.26,35.11" fill="#696e78"/><rect x="351.14" y="35.11" width="35.11" height="35.11" fill="#363e4c"/><polygon points="351.14,35.11 386.25,35.11 386.25,70.22" fill="#414957"/><rect x="386.26" y="35.11" width="35.11" height="35.11" fill="#2b3240"/><polygon points="386.26,35.11 421.37,35.11 421.37,70.22" fill="#757982"/><rect x="421.37142857142857" y="0" width="70.22857142857143" height="70.22857142857143" fill="#111928"/><rect x="421.37" y="0" width="35.11" height="35.11" fill="#92969d"/><polygon points="421.37,0 456.48,0 456.48,35.11" fill="#242b39"/><rect x="456.49" y="0" width="35.11" height="35.11" fill="#b1b4b9"/><polygon points="456.49,0 491.6,0 491.6,35.11" fill="#626977"/><rect x="421.37" y="35.11" width="35.11" height="35.11" fill="#c4c6ca"/><polygon points="421.37,35.11 456.48,35.11 456.48,70.22" fill="#161e2d"/><rect x="456.49" y="35.11" width="35.11" height="35.11" fill="#49505f"/><polygon points="456.49,35.11 491.6,35.11 456.49,70.22" fill="#686f7d"/><rect x="491.6" y="0" width="70.23" height="70.23" fill="#f5f6f6"/><polygon points="491.6,0 561.83,70.23 491.6,70.23" fill="#666b75"/><rect x="561.8285714285714" y="0" width="70.22857142857143" height="70.22857142857143" fill="#111928"/><rect x="561.83" y="0" width="35.11" height="35.11" fill="#a2a5ab"/><polygon points="561.83,0 596.94,0 561.83,35.11" fill="#2b3241"/><rect x="596.94" y="0" width="35.11" height="35.11" fill="#303846"/><polygon points="632.0500000000001,0 632.0500000000001,35.11 596.94,35.11" fill="#414957"/><rect x="561.83" y="35.11" width="35.11" height="35.11" fill="#b3b5ba"/><polygon points="561.83,35.11 596.94,70.22 561.83,70.22" fill="#c9cbce"/><rect x="596.94" y="35.11" width="35.11" height="35.11" fill="#95999f"/><polygon points="596.94,35.11 632.0500000000001,35.11 596.94,70.22" fill="#82868e"/><rect x="632.0571428571428" y="0" width="70.22857142857143" height="70.22857142857143" fill="#111928"/><rect x="632.06" y="0" width="35.11" height="35.11" fill="#8a8e95"/><polygon points="632.06,0 667.17,0 632.06,35.11" fill="#e2e3e5"/><rect x="667.17" y="0" width="35.11" height="35.11" fill="#f3f3f4"/><polygon points="702.28,0 702.28,35.11 667.17,35.11" fill="#1f2736"/><rect x="632.06" y="35.11" width="35.11" height="35.11" fill="#e1e2e4"/><polygon points="667.17,35.11 667.17,70.22 632.06,70.22" fill="#6d727b"/><rect x="667.17" y="35.11" width="35.11" height="35.11" fill="#a1a4aa"/><polygon points="667.17,35.11 702.28,35.11 702.28,70.22" fill="#464d58"/><rect x="702.2857142857142" y="0" width="70.22857142857143" height="70.22857142857143" fill="#111928"/><rect x="702.29" y="0" width="35.11" height="35.11" fill="#454d5b"/><polygon points="702.29,0 737.4,0 702.29,35.11" fill="#9ea2a8"/><rect x="737.4" y="0" width="35.11" height="35.11" fill="#4d5463"/><polygon points="737.4,0 772.51,0 737.4,35.11" fill="#131b2a"/><rect x="702.29" y="35.11" width="35.11" height="35.11" fill="#4d535e"/><polygon points="702.29,35.11 737.4,70.22 702.29,70.22" fill="#323a49"/><rect x="737.4" y="35.11" width="35.11" height="35.11" fill="#505765"/><polygon points="737.4,35.11 772.51,35.11 737.4,70.22" fill="#59606e"/><rect x="772.51" y="0" width="70.23" height="70.23" fill="#1e2534"/><polygon points="842.74,0 842.74,70.23 772.51,70.23" fill="#7b8088"/><rect x="842.7428571428571" y="0" width="70.22857142857143" height="70.22857142857143" fill="#111928"/><rect x="842.74" y="0" width="35.11" height="35.11" fill="#262e3d"/><polygon points="877.85,0 877.85,35.11 842.74,35.11" fill="#fdfdfd"/><rect x="877.86" y="0" width="35.11" height="35.11" fill="#656a74"/><polygon points="877.86,0 912.97,35.11 877.86,35.11" fill="#4d5462"/><rect x="842.74" y="35.11" width="35.11" height="35.11" fill="#161e2c"/><polygon points="842.74,35.11 877.85,35.11 842.74,70.22" fill="#111928"/><rect x="877.86" y="35.11" width="35.11" height="35.11" fill="#171f2e"/><polygon points="877.86,35.11 912.97,35.11 912.97,70.22" fill="#424958"/><rect x="0" y="70.22857142857143" width="70.22857142857143" height="70.22857142857143" fill="#111928"/><rect x="0" y="70.23" width="35.11" height="35.11" fill="#686f7d"/><polygon points="35.11,70.23 35.11,105.34 0,105.34" fill="#878b92"/><rect x="35.11" y="70.23" width="35.11" height="35.11" fill="#161e2d"/><polygon points="70.22,70.23 70.22,105.34 35.11,105.34" fill="#5f656f"/><rect x="0" y="105.34" width="35.11" height="35.11" fill="#161e2c"/><polygon points="35.11,105.34 35.11,140.45 0,140.45" fill="#353d4b"/><rect x="35.11" y="105.34" width="35.11" height="35.11" fill="#e1e2e4"/><polygon points="35.11,105.34 70.22,105.34 35.11,140.45" fill="#565d6b"/><rect x="70.23" y="70.23" width="70.23" height="70.23" fill="#4d5463"/><polygon points="70.23,70.23 140.46,70.23 70.23,140.46" fill="#2a3240"/><rect x="140.46" y="70.23" width="70.23" height="70.23" fill="#2d3442"/><polygon points="210.69,70.23 210.69,140.46 140.46,140.46" fill="#575e6d"/><rect x="210.69" y="70.23" width="70.23" height="70.23" fill="#424958"/><polygon points="210.69,70.23 280.92,70.23 210.69,140.46" fill="#979aa1"/><rect x="280.9142857142857" y="70.22857142857143" width="70.22857142857143" height="70.22857142857143" fill="#111928"/><rect x="280.91" y="70.23" width="35.11" height="35.11" fill="#2f3643"/><polygon points="280.91,70.23 316.02000000000004,70.23 280.91,105.34" fill="#29303f"/><rect x="316.03" y="70.23" width="35.11" height="35.11" fill="#dbdcde"/><polygon points="316.03,70.23 351.14,70.23 316.03,105.34" fill="#333a46"/><rect x="280.91" y="105.34" width="35.11" height="35.11" fill="#313744"/><polygon points="280.91,105.34 316.02000000000004,105.34 316.02000000000004,140.45" fill="#535a69"/><rect x="316.03" y="105.34" width="35.11" height="35.11" fill="#484f5a"/><polygon points="351.14,105.34 351.14,140.45 316.03,140.45" fill="#b3b5ba"/><rect x="351.14" y="70.23" width="70.23" height="70.23" fill="#5b616b"/><polygon points="351.14,70.23 421.37,70.23 421.37,140.46" fill="#3b4251"/><rect x="421.37142857142857" y="70.22857142857143" width="70.22857142857143" height="70.22857142857143" fill="#111928"/><rect x="421.37" y="70.23" width="35.11" height="35.11" fill="#4d5462"/><polygon points="456.48,70.23 456.48,105.34 421.37,105.34" fill="#f3f3f4"/><rect x="456.49" y="70.23" width="35.11" height="35.11" fill="#404753"/><polygon points="491.6,70.23 491.6,105.34 456.49,105.34" fill="#f8f9f9"/><rect x="421.37" y="105.34" width="35.11" height="35.11" fill="#49515f"/><polygon points="421.37,105.34 456.48,105.34 421.37,140.45" fill="#e7e8ea"/><rect x="456.49" y="105.34" width="35.11" height="35.11" fill="#676c76"/><polygon points="456.49,105.34 491.6,140.45 456.49,140.45" fill="#161e2c"/><rect x="491.6" y="70.23" width="70.23" height="70.23" fill="#777c84"/><polygon points="491.6,70.23 561.83,70.23 561.83,140.46" fill="#5a6170"/><rect x="561.8285714285714" y="70.22857142857143" width="70.22857142857143" height="70.22857142857143" fill="#111928"/><rect x="561.83" y="70.23" width="35.11" height="35.11" fill="#616876"/><polygon points="561.83,70.23 596.94,105.34 561.83,105.34" fill="#192130"/><rect x="596.94" y="70.23" width="35.11" height="35.11" fill="#28303f"/><polygon points="632.0500000000001,70.23 632.0500000000001,105.34 596.94,105.34" fill="#272f3d"/><rect x="561.83" y="105.34" width="35.11" height="35.11" fill="#5c6472"/><polygon points="561.83,105.34 596.94,105.34 561.83,140.45" fill="#333b4a"/><rect x="596.94" y="105.34" width="35.11" height="35.11" fill="#3c4452"/><polygon points="596.94,105.34 632.0500000000001,105.34 632.0500000000001,140.45" fill="#121a29"/><rect x="632.0571428571428" y="70.22857142857143" width="70.22857142857143" height="70.22857142857143" fill="#111928"/><rect x="632.06" y="70.23" width="35.11" height="35.11" fill="#535a68"/><polygon points="632.06,70.23 667.17,105.34 632.06,105.34" fill="#2c3442"/><rect x="667.17" y="70.23" width="35.11" height="35.11" fill="#353c4b"/><polygon points="667.17,70.23 702.28,70.23 702.28,105.34" fill="#d3d4d7"/><rect x="632.06" y="105.34" width="35.11" height="35.11" fill="#535964"/><polygon points="632.06,105.34 667.17,105.34 667.17,140.45" fill="#e7e7e9"/><rect x="667.17" y="105.34" width="35.11" height="35.11" fill="#a0a3a9"/><polygon points="667.17,105.34 702.28,105.34 702.28,140.45" fill="#151d2c"/><rect x="702.2857142857142" y="70.22857142857143" width="70.22857142857143" height="70.22857142857143" fill="#111928"/><rect x="702.29" y="70.23" width="35.11" height="35.11" fill="#4d5463"/><polygon points="702.29,70.23 737.4,105.34 702.29,105.34" fill="#3c434f"/><rect x="737.4" y="70.23" width="35.11" height="35.11" fill="#f7f7f8"/><polygon points="772.51,70.23 772.51,105.34 737.4,105.34" fill="#3b4251"/><rect x="702.29" y="105.34" width="35.11" height="35.11" fill="#4f5665"/><polygon points="737.4,105.34 737.4,140.45 702.29,140.45" fill="#252d3a"/><rect x="737.4" y="105.34" width="35.11" height="35.11" fill="#8b8e96"/><polygon points="737.4,105.34 772.51,140.45 737.4,140.45" fill="#444b5a"/><rect x="772.5142857142857" y="70.22857142857143" width="70.22857142857143" height="70.22857142857143" fill="#111928"/><rect x="772.51" y="70.23" width="35.11" height="35.11" fill="#868a91"/><polygon points="807.62,70.23 807.62,105.34 772.51,105.34" fill="#464c58"/><rect x="807.63" y="70.23" width="35.11" height="35.11" fill="#767b83"/><polygon points="842.74,70.23 842.74,105.34 807.63,105.34" fill="#202837"/><rect x="772.51" y="105.34" width="35.11" height="35.11" fill="#cfd1d4"/><polygon points="772.51,105.34 807.62,140.45 772.51,140.45" fill="#565d6c"/><rect x="807.63" y="105.34" width="35.11" height="35.11" fill="#121a28"/><polygon points="807.63,105.34 842.74,105.34 842.74,140.45" fill="#f5f5f6"/><rect x="842.74" y="70.23" width="70.23" height="70.23" fill="#363d4c"/><polygon points="912.97,70.23 912.97,140.46 842.74,140.46" fill="#474f5d"/><rect x="0" y="140.45714285714286" width="70.22857142857143" height="70.22857142857143" fill="#111928"/><rect x="0" y="140.46" width="35.11" height="35.11" fill="#bbbec2"/><polygon points="0,140.46 35.11,140.46 0,175.57" fill="#505765"/><rect x="35.11" y="140.46" width="35.11" height="35.11" fill="#636a78"/><polygon points="35.11,140.46 70.22,140.46 35.11,175.57" fill="#5f6675"/><rect x="0" y="175.57" width="35.11" height="35.11" fill="#434a55"/><polygon points="35.11,175.57 35.11,210.68 0,210.68" fill="#444b56"/><rect x="35.11" y="175.57" width="35.11" height="35.11" fill="#4e545f"/><polygon points="35.11,175.57 70.22,175.57 70.22,210.68" fill="#5d6472"/><rect x="70.22857142857143" y="140.45714285714286" width="70.22857142857143" height="70.22857142857143" fill="#111928"/><rect x="70.23" y="140.46" width="35.11" height="35.11" fill="#38404f"/><polygon points="70.23,140.46 105.34,175.57 70.23,175.57" fill="#606775"/><rect x="105.34" y="140.46" width="35.11" height="35.11" fill="#575e6c"/><polygon points="105.34,140.46 140.45,140.46 105.34,175.57" fill="#bfc1c5"/><rect x="70.23" y="175.57" width="35.11" height="35.11" fill="#69707e"/><polygon points="105.34,175.57 105.34,210.68 70.23,210.68" fill="#515867"/><rect x="105.34" y="175.57" width="35.11" height="35.11" fill="#131b2a"/><polygon points="105.34,175.57 140.45,175.57 140.45,210.68" fill="#80848c"/><rect x="140.46" y="140.46" width="70.23" height="70.23" fill="#dcdee0"/><polygon points="140.46,140.46 210.69,140.46 140.46,210.69" fill="#4a515f"/><rect x="210.68571428571428" y="140.45714285714286" width="70.22857142857143" height="70.22857142857143" fill="#111928"/><rect x="210.69" y="140.46" width="35.11" height="35.11" fill="#858991"/><polygon points="245.8,140.46 245.8,175.57 210.69,175.57" fill="#515967"/><rect x="245.8" y="140.46" width="35.11" height="35.11" fill="#656c7a"/><polygon points="245.8,140.46 280.91,140.46 280.91,175.57" fill="#616876"/><rect x="210.69" y="175.57" width="35.11" height="35.11" fill="#4f5765"/><polygon points="210.69,175.57 245.8,175.57 245.8,210.68" fill="#1b2332"/><rect x="245.8" y="175.57" width="35.11" height="35.11" fill="#18202f"/><polygon points="245.8,175.57 280.91,210.68 245.8,210.68" fill="#333a47"/><rect x="280.9142857142857" y="140.45714285714286" width="70.22857142857143" height="70.22857142857143" fill="#111928"/><rect x="280.91" y="140.46" width="35.11" height="35.11" fill="#646973"/><polygon points="280.91,140.46 316.02000000000004,140.46 316.02000000000004,175.57" fill="#8e9299"/><rect x="316.03" y="140.46" width="35.11" height="35.11" fill="#a5a9ae"/><polygon points="316.03,140.46 351.14,140.46 351.14,175.57" fill="#646973"/><rect x="280.91" y="175.57" width="35.11" height="35.11" fill="#262e3d"/><polygon points="316.02000000000004,175.57 316.02000000000004,210.68 280.91,210.68" fill="#606670"/><rect x="316.03" y="175.57" width="35.11" height="35.11" fill="#626771"/><polygon points="316.03,175.57 351.14,175.57 316.03,210.68" fill="#dfe0e2"/><rect x="351.14" y="140.46" width="70.23" height="70.23" fill="#232a38"/><polygon points="421.37,140.46 421.37,210.69 351.14,210.69" fill="#353c48"/><rect x="421.37" y="140.46" width="70.23" height="70.23" fill="#192130"/><polygon points="421.37,140.46 491.6,140.46 421.37,210.69" fill="#3a4250"/><rect x="491.6" y="140.46" width="70.23" height="70.23" fill="#ffffff"/><polygon points="491.6,140.46 561.83,210.69 491.6,210.69" fill="#606775"/><rect x="561.83" y="140.46" width="70.23" height="70.23" fill="#535b69"/><polygon points="561.83,140.46 632.0600000000001,210.69 561.83,210.69" fill="#111928"/><rect x="632.06" y="140.46" width="70.23" height="70.23" fill="#7b7f88"/><polygon points="632.06,140.46 702.29,210.69 632.06,210.69" fill="#242c3b"/><rect x="702.29" y="140.46" width="70.23" height="70.23" fill="#545b6a"/><polygon points="702.29,140.46 772.52,210.69 702.29,210.69" fill="#585f6d"/><rect x="772.5142857142857" y="140.45714285714286" width="70.22857142857143" height="70.22857142857143" fill="#111928"/><rect x="772.51" y="140.46" width="35.11" height="35.11" fill="#626977"/><polygon points="772.51,140.46 807.62,175.57 772.51,175.57" fill="#212937"/><rect x="807.63" y="140.46" width="35.11" height="35.11" fill="#7d828a"/><polygon points="842.74,140.46 842.74,175.57 807.63,175.57" fill="#3f4755"/><rect x="772.51" y="175.57" width="35.11" height="35.11" fill="#5b606b"/><polygon points="772.51,175.57 807.62,175.57 807.62,210.68" fill="#414753"/><rect x="807.63" y="175.57" width="35.11" height="35.11" fill="#525967"/><polygon points="807.63,175.57 842.74,175.57 842.74,210.68" fill="#3d4453"/><rect x="842.7428571428571" y="140.45714285714286" width="70.22857142857143" height="70.22857142857143" fill="#111928"/><rect x="842.74" y="140.46" width="35.11" height="35.11" fill="#383f4e"/><polygon points="877.85,140.46 877.85,175.57 842.74,175.57" fill="#d8d9db"/><rect x="877.86" y="140.46" width="35.11" height="35.11" fill="#555c6a"/><polygon points="912.97,140.46 912.97,175.57 877.86,175.57" fill="#ededef"/><rect x="842.74" y="175.57" width="35.11" height="35.11" fill="#8e9299"/><polygon points="877.85,175.57 877.85,210.68 842.74,210.68" fill="#262d3c"/><rect x="877.86" y="175.57" width="35.11" height="35.11" fill="#161e2d"/><polygon points="877.86,175.57 912.97,175.57 877.86,210.68" fill="#b0b2b7"/><rect x="0" y="210.69" width="70.23" height="70.23" fill="#131b2a"/><polygon points="0,210.69 70.23,280.92 0,280.92" fill="#414957"/><rect x="70.22857142857143" y="210.68571428571428" width="70.22857142857143" height="70.22857142857143" fill="#111928"/><rect x="70.23" y="210.69" width="35.11" height="35.11" fill="#525967"/><polygon points="70.23,210.69 105.34,245.8 70.23,245.8" fill="#656c7a"/><rect x="105.34" y="210.69" width="35.11" height="35.11" fill="#59606e"/><polygon points="105.34,210.69 140.45,210.69 105.34,245.8" fill="#151d2c"/><rect x="70.23" y="245.8" width="35.11" height="35.11" fill="#a8abb0"/><polygon points="70.23,245.8 105.34,245.8 70.23,280.91" fill="#515866"/><rect x="105.34" y="245.8" width="35.11" height="35.11" fill="#343b4a"/><polygon points="140.45,245.8 140.45,280.91 105.34,280.91" fill="#424a58"/><rect x="140.45714285714286" y="210.68571428571428" width="70.22857142857143" height="70.22857142857143" fill="#111928"/><rect x="140.46" y="210.69" width="35.11" height="35.11" fill="#737881"/><polygon points="140.46,210.69 175.57,210.69 175.57,245.8" fill="#333b49"/><rect x="175.57" y="210.69" width="35.11" height="35.11" fill="#b6b9bd"/><polygon points="175.57,210.69 210.68,210.69 175.57,245.8" fill="#abaeb3"/><rect x="140.46" y="245.8" width="35.11" height="35.11" fill="#6a717f"/><polygon points="140.46,245.8 175.57,245.8 175.57,280.91" fill="#161e2d"/><rect x="175.57" y="245.8" width="35.11" height="35.11" fill="#555c6a"/><polygon points="210.68,245.8 210.68,280.91 175.57,280.91" fill="#5d6472"/><rect x="210.69" y="210.69" width="70.23" height="70.23" fill="#2d3441"/><polygon points="280.92,210.69 280.92,280.92 210.69,280.92" fill="#4a505b"/><rect x="280.91" y="210.69" width="70.23" height="70.23" fill="#464d5c"/><polygon points="280.91,210.69 351.14000000000004,210.69 280.91,280.92" fill="#c1c3c7"/><rect x="351.1428571428571" y="210.68571428571428" width="70.22857142857143" height="70.22857142857143" fill="#111928"/><rect x="351.14" y="210.69" width="35.11" height="35.11" fill="#525967"/><polygon points="351.14,210.69 386.25,210.69 386.25,245.8" fill="#373e4d"/><rect x="386.26" y="210.69" width="35.11" height="35.11" fill="#222a39"/><polygon points="386.26,210.69 421.37,245.8 386.26,245.8" fill="#b4b7bc"/><rect x="351.14" y="245.8" width="35.11" height="35.11" fill="#19212f"/><polygon points="351.14,245.8 386.25,280.91 351.14,280.91" fill="#c5c7ca"/><rect x="386.26" y="245.8" width="35.11" height="35.11" fill="#454c5a"/><polygon points="386.26,245.8 421.37,245.8 386.26,280.91" fill="#353d4b"/><rect x="421.37142857142857" y="210.68571428571428" width="70.22857142857143" height="70.22857142857143" fill="#111928"/><rect x="421.37" y="210.69" width="35.11" height="35.11" fill="#1b2331"/><polygon points="456.48,210.69 456.48,245.8 421.37,245.8" fill="#3b4351"/><rect x="456.49" y="210.69" width="35.11" height="35.11" fill="#484f5d"/><polygon points="491.6,210.69 491.6,245.8 456.49,245.8" fill="#656c7a"/><rect x="421.37" y="245.8" width="35.11" height="35.11" fill="#373e4a"/><polygon points="421.37,245.8 456.48,245.8 456.48,280.91" fill="#69707e"/><rect x="456.49" y="245.8" width="35.11" height="35.11" fill="#293140"/><polygon points="456.49,245.8 491.6,245.8 491.6,280.91" fill="#686f7d"/><rect x="491.6" y="210.69" width="70.23" height="70.23" fill="#5d6472"/><polygon points="561.83,210.69 561.83,280.92 491.6,280.92" fill="#1b2331"/><rect x="561.8285714285714" y="210.68571428571428" width="70.22857142857143" height="70.22857142857143" fill="#111928"/><rect x="561.83" y="210.69" width="35.11" height="35.11" fill="#404652"/><polygon points="596.94,210.69 596.94,245.8 561.83,245.8" fill="#94989f"/><rect x="596.94" y="210.69" width="35.11" height="35.11" fill="#343b48"/><polygon points="596.94,210.69 632.0500000000001,245.8 596.94,245.8" fill="#515866"/><rect x="561.83" y="245.8" width="35.11" height="35.11" fill="#5e6573"/><polygon points="561.83,245.8 596.94,245.8 596.94,280.91" fill="#606775"/><rect x="596.94" y="245.8" width="35.11" height="35.11" fill="#595f69"/><polygon points="596.94,245.8 632.0500000000001,245.8 632.0500000000001,280.91" fill="#323948"/><rect x="632.06" y="210.69" width="70.23" height="70.23" fill="#83888f"/><polygon points="632.06,210.69 702.29,210.69 702.29,280.92" fill="#525863"/><rect x="702.2857142857142" y="210.68571428571428" width="70.22857142857143" height="70.22857142857143" fill="#111928"/><rect x="702.29" y="210.69" width="35.11" height="35.11" fill="#69707e"/><polygon points="702.29,210.69 737.4,245.8 702.29,245.8" fill="#6b7280"/><rect x="737.4" y="210.69" width="35.11" height="35.11" fill="#535a69"/><polygon points="737.4,210.69 772.51,210.69 737.4,245.8" fill="#bcbec2"/><rect x="702.29" y="245.8" width="35.11" height="35.11" fill="#141c2a"/><polygon points="702.29,245.8 737.4,245.8 737.4,280.91" fill="#babcc1"/><rect x="737.4" y="245.8" width="35.11" height="35.11" fill="#6b7079"/><polygon points="772.51,245.8 772.51,280.91 737.4,280.91" fill="#3e4554"/><rect x="772.5142857142857" y="210.68571428571428" width="70.22857142857143" height="70.22857142857143" fill="#111928"/><rect x="772.51" y="210.69" width="35.11" height="35.11" fill="#414753"/><polygon points="772.51,210.69 807.62,210.69 772.51,245.8" fill="#69707e"/><rect x="807.63" y="210.69" width="35.11" height="35.11" fill="#555c6a"/><polygon points="807.63,210.69 842.74,210.69 807.63,245.8" fill="#3b424e"/><rect x="772.51" y="245.8" width="35.11" height="35.11" fill="#28303f"/><polygon points="772.51,245.8 807.62,245.8 772.51,280.91" fill="#585e68"/><rect x="807.63" y="245.8" width="35.11" height="35.11" fill="#2c3443"/><polygon points="807.63,245.8 842.74,245.8 807.63,280.91" fill="#383f4e"/><rect x="842.7428571428571" y="210.68571428571428" width="70.22857142857143" height="70.22857142857143" fill="#111928"/><rect x="842.74" y="210.69" width="35.11" height="35.11" fill="#696e77"/><polygon points="877.85,210.69 877.85,245.8 842.74,245.8" fill="#70757e"/><rect x="877.86" y="210.69" width="35.11" height="35.11" fill="#626978"/><polygon points="877.86,210.69 912.97,210.69 877.86,245.8" fill="#a3a6ac"/><rect x="842.74" y="245.8" width="35.11" height="35.11" fill="#3d4453"/><polygon points="842.74,245.8 877.85,280.91 842.74,280.91" fill="#686f7d"/><rect x="877.86" y="245.8" width="35.11" height="35.11" fill="#343a47"/><polygon points="912.97,245.8 912.97,280.91 877.86,280.91" fill="#e1e2e4"/><rect x="0" y="280.9142857142857" width="70.22857142857143" height="70.22857142857143" fill="#111928"/><rect x="0" y="280.91" width="35.11" height="35.11" fill="#616876"/><polygon points="0,280.91 35.11,280.91 35.11,316.02000000000004" fill="#555d6b"/><rect x="35.11" y="280.91" width="35.11" height="35.11" fill="#9ea1a7"/><polygon points="70.22,280.91 70.22,316.02000000000004 35.11,316.02000000000004" fill="#4d5463"/><rect x="0" y="316.03" width="35.11" height="35.11" fill="#141c2b"/><polygon points="0,316.03 35.11,351.14 0,351.14" fill="#363c49"/><rect x="35.11" y="316.03" width="35.11" height="35.11" fill="#4d535e"/><polygon points="35.11,316.03 70.22,351.14 35.11,351.14" fill="#4e5564"/><rect x="70.23" y="280.91" width="70.23" height="70.23" fill="#4e5664"/><polygon points="70.23,280.91 140.46,280.91 140.46,351.14000000000004" fill="#69707e"/><rect x="140.46" y="280.91" width="70.23" height="70.23" fill="#4d5563"/><polygon points="210.69,280.91 210.69,351.14000000000004 140.46,351.14000000000004" fill="#464d5c"/><rect x="210.68571428571428" y="280.9142857142857" width="70.22857142857143" height="70.22857142857143" fill="#111928"/><rect x="210.69" y="280.91" width="35.11" height="35.11" fill="#7a7e86"/><polygon points="210.69,280.91 245.8,280.91 210.69,316.02000000000004" fill="#1c2432"/><rect x="245.8" y="280.91" width="35.11" height="35.11" fill="#222a39"/><polygon points="280.91,280.91 280.91,316.02000000000004 245.8,316.02000000000004" fill="#48505e"/><rect x="210.69" y="316.03" width="35.11" height="35.11" fill="#39404f"/><polygon points="210.69,316.03 245.8,351.14 210.69,351.14" fill="#202837"/><rect x="245.8" y="316.03" width="35.11" height="35.11" fill="#565e6c"/><polygon points="245.8,316.03 280.91,351.14 245.8,351.14" fill="#646b79"/><rect x="280.91" y="280.91" width="70.23" height="70.23" fill="#f3f3f4"/><polygon points="351.14000000000004,280.91 351.14000000000004,351.14000000000004 280.91,351.14000000000004" fill="#666d7b"/><rect x="351.1428571428571" y="280.9142857142857" width="70.22857142857143" height="70.22857142857143" fill="#111928"/><rect x="351.14" y="280.91" width="35.11" height="35.11" fill="#c2c4c8"/><polygon points="351.14,280.91 386.25,280.91 386.25,316.02000000000004" fill="#3c4452"/><rect x="386.26" y="280.91" width="35.11" height="35.11" fill="#444c5a"/><polygon points="386.26,280.91 421.37,280.91 386.26,316.02000000000004" fill="#69707e"/><rect x="351.14" y="316.03" width="35.11" height="35.11" fill="#3f4552"/><polygon points="351.14,316.03 386.25,316.03 351.14,351.14" fill="#1a2231"/><rect x="386.26" y="316.03" width="35.11" height="35.11" fill="#d0d2d5"/><polygon points="386.26,316.03 421.37,316.03 421.37,351.14" fill="#f5f5f6"/><rect x="421.37" y="280.91" width="70.23" height="70.23" fill="#141c2b"/><polygon points="421.37,280.91 491.6,280.91 421.37,351.14000000000004" fill="#38404e"/><rect x="491.6" y="280.9142857142857" width="70.22857142857143" height="70.22857142857143" fill="#111928"/><rect x="491.6" y="280.91" width="35.11" height="35.11" fill="#9699a0"/><polygon points="491.6,280.91 526.71,316.02000000000004 491.6,316.02000000000004" fill="#5b6270"/><rect x="526.71" y="280.91" width="35.11" height="35.11" fill="#2b323f"/><polygon points="561.82,280.91 561.82,316.02000000000004 526.71,316.02000000000004" fill="#535b69"/><rect x="491.6" y="316.03" width="35.11" height="35.11" fill="#131b2a"/><polygon points="491.6,316.03 526.71,316.03 491.6,351.14" fill="#18202f"/><rect x="526.71" y="316.03" width="35.11" height="35.11" fill="#fcfcfc"/><polygon points="526.71,316.03 561.82,316.03 526.71,351.14" fill="#515967"/><rect x="561.8285714285714" y="280.9142857142857" width="70.22857142857143" height="70.22857142857143" fill="#111928"/><rect x="561.83" y="280.91" width="35.11" height="35.11" fill="#535a68"/><polygon points="596.94,280.91 596.94,316.02000000000004 561.83,316.02000000000004" fill="#f1f2f3"/><rect x="596.94" y="280.91" width="35.11" height="35.11" fill="#aaadb3"/><polygon points="596.94,280.91 632.0500000000001,280.91 596.94,316.02000000000004" fill="#81858d"/><rect x="561.83" y="316.03" width="35.11" height="35.11" fill="#686f7d"/><polygon points="596.94,316.03 596.94,351.14 561.83,351.14" fill="#3f4655"/><rect x="596.94" y="316.03" width="35.11" height="35.11" fill="#49505e"/><polygon points="632.0500000000001,316.03 632.0500000000001,351.14 596.94,351.14" fill="#cfd1d4"/><rect x="632.0571428571428" y="280.9142857142857" width="70.22857142857143" height="70.22857142857143" fill="#111928"/><rect x="632.06" y="280.91" width="35.11" height="35.11" fill="#111928"/><polygon points="632.06,280.91 667.17,280.91 667.17,316.02000000000004" fill="#3e4654"/><rect x="667.17" y="280.91" width="35.11" height="35.11" fill="#494f5b"/><polygon points="667.17,280.91 702.28,280.91 702.28,316.02000000000004" fill="#434b59"/><rect x="632.06" y="316.03" width="35.11" height="35.11" fill="#dedfe1"/><polygon points="667.17,316.03 667.17,351.14 632.06,351.14" fill="#e5e6e7"/><rect x="667.17" y="316.03" width="35.11" height="35.11" fill="#1c2432"/><polygon points="667.17,316.03 702.28,316.03 702.28,351.14" fill="#4f5560"/><rect x="702.29" y="280.91" width="70.23" height="70.23" fill="#505766"/><polygon points="702.29,280.91 772.52,280.91 702.29,351.14000000000004" fill="#4e545f"/><rect x="772.5142857142857" y="280.9142857142857" width="70.22857142857143" height="70.22857142857143" fill="#111928"/><rect x="772.51" y="280.91" width="35.11" height="35.11" fill="#464e5c"/><polygon points="772.51,280.91 807.62,316.02000000000004 772.51,316.02000000000004" fill="#8d9098"/><rect x="807.63" y="280.91" width="35.11" height="35.11" fill="#979aa1"/><polygon points="807.63,280.91 842.74,316.02000000000004 807.63,316.02000000000004" fill="#e7e8e9"/><rect x="772.51" y="316.03" width="35.11" height="35.11" fill="#515866"/><polygon points="772.51,316.03 807.62,316.03 772.51,351.14" fill="#1f2735"/><rect x="807.63" y="316.03" width="35.11" height="35.11" fill="#646b79"/><polygon points="807.63,316.03 842.74,351.14 807.63,351.14" fill="#656c7b"/><rect x="842.7428571428571" y="280.9142857142857" width="70.22857142857143" height="70.22857142857143" fill="#111928"/><rect x="842.74" y="280.91" width="35.11" height="35.11" fill="#525967"/><polygon points="842.74,280.91 877.85,280.91 877.85,316.02000000000004" fill="#858991"/><rect x="877.86" y="280.91" width="35.11" height="35.11" fill="#181f2e"/><polygon points="877.86,280.91 912.97,280.91 877.86,316.02000000000004" fill="#121a29"/><rect x="842.74" y="316.03" width="35.11" height="35.11" fill="#7c8088"/><polygon points="842.74,316.03 877.85,351.14 842.74,351.14" fill="#303846"/><rect x="877.86" y="316.03" width="35.11" height="35.11" fill="#484f5d"/><polygon points="877.86,316.03 912.97,351.14 877.86,351.14" fill="#212938"/><rect x="0" y="351.14" width="70.23" height="70.23" fill="#262e3c"/><polygon points="70.23,351.14 70.23,421.37 0,421.37" fill="#ccced1"/><rect x="70.23" y="351.14" width="70.23" height="70.23" fill="#757982"/><polygon points="70.23,351.14 140.46,351.14 70.23,421.37" fill="#6a6f79"/><rect x="140.45714285714286" y="351.1428571428571" width="70.22857142857143" height="70.22857142857143" fill="#111928"/><rect x="140.46" y="351.14" width="35.11" height="35.11" fill="#404756"/><polygon points="140.46,351.14 175.57,386.25 140.46,386.25" fill="#1e2635"/><rect x="175.57" y="351.14" width="35.11" height="35.11" fill="#1c2433"/><polygon points="210.68,351.14 210.68,386.25 175.57,386.25" fill="#666b75"/><rect x="140.46" y="386.26" width="35.11" height="35.11" fill="#676e7c"/><polygon points="140.46,386.26 175.57,386.26 175.57,421.37" fill="#555d6b"/><rect x="175.57" y="386.26" width="35.11" height="35.11" fill="#9ea1a7"/><polygon points="175.57,386.26 210.68,386.26 210.68,421.37" fill="#1c2432"/><rect x="210.69" y="351.14" width="70.23" height="70.23" fill="#444a56"/><polygon points="280.92,351.14 280.92,421.37 210.69,421.37" fill="#2d3441"/><rect x="280.91" y="351.14" width="70.23" height="70.23" fill="#3a4250"/><polygon points="280.91,351.14 351.14000000000004,421.37 280.91,421.37" fill="#858990"/><rect x="351.14" y="351.14" width="70.23" height="70.23" fill="#5e6573"/><polygon points="351.14,351.14 421.37,351.14 421.37,421.37" fill="#e4e5e6"/><rect x="421.37" y="351.14" width="70.23" height="70.23" fill="#80858d"/><polygon points="421.37,351.14 491.6,421.37 421.37,421.37" fill="#494f5a"/><rect x="491.6" y="351.1428571428571" width="70.22857142857143" height="70.22857142857143" fill="#111928"/><rect x="491.6" y="351.14" width="35.11" height="35.11" fill="#5e6674"/><polygon points="491.6,351.14 526.71,351.14 491.6,386.25" fill="#363e4c"/><rect x="526.71" y="351.14" width="35.11" height="35.11" fill="#515867"/><polygon points="526.71,351.14 561.82,386.25 526.71,386.25" fill="#171f2d"/><rect x="491.6" y="386.26" width="35.11" height="35.11" fill="#2b3341"/><polygon points="526.71,386.26 526.71,421.37 491.6,421.37" fill="#f1f1f2"/><rect x="526.71" y="386.26" width="35.11" height="35.11" fill="#b6b8bd"/><polygon points="526.71,386.26 561.82,386.26 561.82,421.37" fill="#6c717a"/><rect x="561.8285714285714" y="351.1428571428571" width="70.22857142857143" height="70.22857142857143" fill="#111928"/><rect x="561.83" y="351.14" width="35.11" height="35.11" fill="#1b2332"/><polygon points="561.83,351.14 596.94,351.14 596.94,386.25" fill="#bdbfc3"/><rect x="596.94" y="351.14" width="35.11" height="35.11" fill="#515967"/><polygon points="596.94,351.14 632.0500000000001,351.14 596.94,386.25" fill="#474d59"/><rect x="561.83" y="386.26" width="35.11" height="35.11" fill="#2f3645"/><polygon points="561.83,386.26 596.94,421.37 561.83,421.37" fill="#575f6d"/><rect x="596.94" y="386.26" width="35.11" height="35.11" fill="#353d4c"/><polygon points="596.94,386.26 632.0500000000001,386.26 596.94,421.37" fill="#1c2332"/><rect x="632.0571428571428" y="351.1428571428571" width="70.22857142857143" height="70.22857142857143" fill="#111928"/><rect x="632.06" y="351.14" width="35.11" height="35.11" fill="#515762"/><polygon points="632.06,351.14 667.17,351.14 632.06,386.25" fill="#404756"/><rect x="667.17" y="351.14" width="35.11" height="35.11" fill="#1f2736"/><polygon points="667.17,351.14 702.28,351.14 702.28,386.25" fill="#686f7d"/><rect x="632.06" y="386.26" width="35.11" height="35.11" fill="#e9eaeb"/><polygon points="632.06,386.26 667.17,421.37 632.06,421.37" fill="#979aa1"/><rect x="667.17" y="386.26" width="35.11" height="35.11" fill="#656a74"/><polygon points="667.17,386.26 702.28,386.26 702.28,421.37" fill="#adb0b5"/><rect x="702.29" y="351.14" width="70.23" height="70.23" fill="#aeb1b6"/><polygon points="772.52,351.14 772.52,421.37 702.29,421.37" fill="#525762"/><rect x="772.5142857142857" y="351.1428571428571" width="70.22857142857143" height="70.22857142857143" fill="#111928"/><rect x="772.51" y="351.14" width="35.11" height="35.11" fill="#69707e"/><polygon points="807.62,351.14 807.62,386.25 772.51,386.25" fill="#5b6271"/><rect x="807.63" y="351.14" width="35.11" height="35.11" fill="#131b29"/><polygon points="842.74,351.14 842.74,386.25 807.63,386.25" fill="#e5e6e8"/><rect x="772.51" y="386.26" width="35.11" height="35.11" fill="#8d9198"/><polygon points="772.51,386.26 807.62,386.26 772.51,421.37" fill="#69707e"/><rect x="807.63" y="386.26" width="35.11" height="35.11" fill="#6b7079"/><polygon points="807.63,386.26 842.74,421.37 807.63,421.37" fill="#81858d"/><rect x="842.74" y="351.14" width="70.23" height="70.23" fill="#353c49"/><polygon points="842.74,351.14 912.97,351.14 842.74,421.37" fill="#9ea1a7"/><rect x="0" y="421.37" width="70.23" height="70.23" fill="#a1a4aa"/><polygon points="0,421.37 70.23,491.6 0,491.6" fill="#c5c7cb"/><rect x="70.23" y="421.37" width="70.23" height="70.23" fill="#878b92"/><polygon points="70.23,421.37 140.46,421.37 140.46,491.6" fill="#71767f"/><rect x="140.45714285714286" y="421.37142857142857" width="70.22857142857143" height="70.22857142857143" fill="#111928"/><rect x="140.46" y="421.37" width="35.11" height="35.11" fill="#2d3443"/><polygon points="175.57,421.37 175.57,456.48 140.46,456.48" fill="#333a49"/><rect x="175.57" y="421.37" width="35.11" height="35.11" fill="#3a4251"/><polygon points="175.57,421.37 210.68,456.48 175.57,456.48" fill="#2b3340"/><rect x="140.46" y="456.49" width="35.11" height="35.11" fill="#cacbcf"/><polygon points="175.57,456.49 175.57,491.6 140.46,491.6" fill="#92969d"/><rect x="175.57" y="456.49" width="35.11" height="35.11" fill="#161e2d"/><polygon points="175.57,456.49 210.68,491.6 175.57,491.6" fill="#656c7a"/><rect x="210.68571428571428" y="421.37142857142857" width="70.22857142857143" height="70.22857142857143" fill="#111928"/><rect x="210.69" y="421.37" width="35.11" height="35.11" fill="#1d2533"/><polygon points="210.69,421.37 245.8,421.37 245.8,456.48" fill="#282f3e"/><rect x="245.8" y="421.37" width="35.11" height="35.11" fill="#373e4d"/><polygon points="245.8,421.37 280.91,456.48 245.8,456.48" fill="#161e2d"/><rect x="210.69" y="456.49" width="35.11" height="35.11" fill="#636872"/><polygon points="210.69,456.49 245.8,456.49 245.8,491.6" fill="#555b66"/><rect x="245.8" y="456.49" width="35.11" height="35.11" fill="#5c6372"/><polygon points="245.8,456.49 280.91,456.49 280.91,491.6" fill="#a7aab0"/><rect x="280.91" y="421.37" width="70.23" height="70.23" fill="#5c626c"/><polygon points="280.91,421.37 351.14000000000004,421.37 280.91,491.6" fill="#7a7e87"/><rect x="351.14" y="421.37" width="70.23" height="70.23" fill="#141c2b"/><polygon points="351.14,421.37 421.37,421.37 421.37,491.6" fill="#f1f1f2"/><rect x="421.37" y="421.37" width="70.23" height="70.23" fill="#333a49"/><polygon points="421.37,421.37 491.6,491.6 421.37,491.6" fill="#d8d9dc"/><rect x="491.6" y="421.37142857142857" width="70.22857142857143" height="70.22857142857143" fill="#111928"/><rect x="491.6" y="421.37" width="35.11" height="35.11" fill="#fdfdfe"/><polygon points="526.71,421.37 526.71,456.48 491.6,456.48" fill="#353d4b"/><rect x="526.71" y="421.37" width="35.11" height="35.11" fill="#69707e"/><polygon points="526.71,421.37 561.82,456.48 526.71,456.48" fill="#d6d7da"/><rect x="491.6" y="456.49" width="35.11" height="35.11" fill="#4b5361"/><polygon points="491.6,456.49 526.71,456.49 526.71,491.6" fill="#6f747d"/><rect x="526.71" y="456.49" width="35.11" height="35.11" fill="#b4b7bb"/><polygon points="526.71,456.49 561.82,456.49 561.82,491.6" fill="#babcc0"/><rect x="561.8285714285714" y="421.37142857142857" width="70.22857142857143" height="70.22857142857143" fill="#111928"/><rect x="561.83" y="421.37" width="35.11" height="35.11" fill="#444a56"/><polygon points="561.83,421.37 596.94,421.37 596.94,456.48" fill="#9ea1a7"/><rect x="596.94" y="421.37" width="35.11" height="35.11" fill="#313947"/><polygon points="596.94,421.37 632.0500000000001,456.48 596.94,456.48" fill="#141c2b"/><rect x="561.83" y="456.49" width="35.11" height="35.11" fill="#353d4c"/><polygon points="596.94,456.49 596.94,491.6 561.83,491.6" fill="#515762"/><rect x="596.94" y="456.49" width="35.11" height="35.11" fill="#4a505b"/><polygon points="632.0500000000001,456.49 632.0500000000001,491.6 596.94,491.6" fill="#636a78"/><rect x="632.06" y="421.37" width="70.23" height="70.23" fill="#474d59"/><polygon points="632.06,421.37 702.29,491.6 632.06,491.6" fill="#59606f"/><rect x="702.2857142857142" y="421.37142857142857" width="70.22857142857143" height="70.22857142857143" fill="#111928"/><rect x="702.29" y="421.37" width="35.11" height="35.11" fill="#636a79"/><polygon points="702.29,421.37 737.4,421.37 737.4,456.48" fill="#f7f7f8"/><rect x="737.4" y="421.37" width="35.11" height="35.11" fill="#39404f"/><polygon points="737.4,421.37 772.51,421.37 737.4,456.48" fill="#545b6a"/><rect x="702.29" y="456.49" width="35.11" height="35.11" fill="#cdcfd2"/><polygon points="702.29,456.49 737.4,491.6 702.29,491.6" fill="#c0c2c6"/><rect x="737.4" y="456.49" width="35.11" height="35.11" fill="#3f4755"/><polygon points="737.4,456.49 772.51,491.6 737.4,491.6" fill="#333b4a"/><rect x="772.51" y="421.37" width="70.23" height="70.23" fill="#2b3241"/><polygon points="772.51,421.37 842.74,491.6 772.51,491.6" fill="#2b3342"/><rect x="842.74" y="421.37" width="70.23" height="70.23" fill="#434955"/><polygon points="842.74,421.37 912.97,421.37 912.97,491.6" fill="#e2e3e5"/></g></svg>